<?xml version="1.0" encoding="UTF-8"?>
<svg width="100pt" height="100pt" version="1.1" viewBox="0 0 100 100" xmlns="http://www.w3.org/2000/svg">
 <path d="m55.375 42.172c-0.042969-0.03125-0.089844-0.0625-0.13281-0.09375-0.78125-0.75781-2-1.3164-3.4453-1.5391v-0.003906c-0.31641-0.066406-0.63672-0.12109-0.95703-0.15234l-0.42969-0.039062c-0.035156 0-0.070312-0.015625-0.10938-0.015625h-0.050781l-26.586-2.6016h-0.17578l-0.082031 0.011719v-0.003906c-0.11328 0.03125-0.21875 0.082031-0.30859 0.15625l-0.027344 0.023437v-0.003906c-0.015624 0.015625-0.035156 0.03125-0.046874 0.050782l-0.039063 0.042968-0.035156 0.050782c-0.011719 0.015624-0.027344 0.039062-0.039063 0.054687l-0.023437 0.050781c0 0.023438-0.023438 0.039063-0.03125 0.0625-0.007813 0.019532 0 0 0 0 0 0.015625 0 0.03125-0.015625 0.046875-0.011719 0.019531-0.015625 0.046875-0.015625 0.070313-0.003907 0.023437 0 0.039062 0 0.058594v0.20312c0 0.023438 0 0.039063 0.015625 0.058594 0.011718 0.019532 0.007812 0.042969 0.015625 0.0625 0.007812 0.023438 0.015625 0.039063 0.023437 0.054688 0.007813 0.019531 0.015625 0.039062 0.027344 0.0625l0.03125 0.054687 0.039062 0.054688c0.011719 0.015625 0.027344 0.03125 0.039063 0.046875l0.046875 0.046875c0.015625 0.015625 0.03125 0.027343 0.046875 0.039062l0.039063 0.03125c8.0859 5.6875 15.703 11.156 20.023 15.566l-0.003906 0.011718c0.023437 0.023438 0.050781 0.046875 0.078125 0.070313 2.2539 1.75 4.957 2.8281 7.8008 3.1094 0.058594 0.003906 0.12109 0.003906 0.17969 0 5.3398-0.72656 13.789 0.10938 25.121 2.4766v-0.003906c0.054688 0.011719 0.10547 0.015625 0.16016 0.015625 0.31641 0 0.60547-0.19141 0.72266-0.48828 0.12109-0.29297 0.050781-0.63281-0.17578-0.85156-5.4297-5.25-12.797-11.922-21.68-16.848zm-1.1445 1.1016c0.23047 0.22656 0.37109 0.52734 0.39062 0.85156 0 1.0117-1.7578 2.1484-4.2812 2.1484-2.5234 0-4.2812-1.125-4.2812-2.1484 0-1.0195 1.7578-2.1406 4.2812-2.1406 0.40625 0.003906 0.80859 0.035156 1.207 0.09375 0.96484 0.21484 1.8789 0.62109 2.6836 1.1953zm-10.246-0.5-7.1914-0.58594 0.125 0.09375c0.16797 0.12891 0.23828 0.34766 0.17188 0.54688-0.070313 0.19922-0.25781 0.33594-0.46484 0.33594-0.10547 0-0.21094-0.035156-0.29297-0.10156l-0.78125-0.58594c-0.21484-0.16016-0.25781-0.46484-0.097656-0.67969 0.16016-0.21875 0.46875-0.26172 0.68359-0.10156l0.22266 0.16406v0.003906c-0.023437-0.066406-0.035156-0.13672-0.03125-0.20703 0.027344-0.26562 0.26172-0.46484 0.53125-0.44531l7.1992 0.58594c0.26953 0.011719 0.48047 0.23828 0.46875 0.50781-0.011719 0.26953-0.23828 0.48047-0.50781 0.46875zm3.4922 10.469h-0.003906c-0.19531-0.19141-0.19531-0.50391-0.003906-0.69922 0.19141-0.19141 0.5-0.19531 0.69531-0.003907l0.39063 0.39063c0.19141 0.19141 0.19141 0.5 0 0.69141-0.19141 0.19141-0.5 0.19141-0.69141 0zm20.133 3.9297-0.34375-1.0234h-0.003906c-0.039063-0.12891-0.125-0.23438-0.24219-0.29688-0.11719-0.058593-0.25391-0.070312-0.38281-0.03125-0.125 0.042969-0.22656 0.13672-0.28516 0.25391-0.054687 0.12109-0.0625 0.25781-0.015624 0.38281l0.18359 0.55078c-4.2578-0.625-7.9062-0.9375-10.984-0.9375h-0.003906c-1.4805-0.007812-2.957 0.082032-4.4297 0.26172-1.0547-0.10938-2.0898-0.34375-3.0938-0.69531 0.21484-0.22656 0.38672-0.49219 0.50391-0.78125l2.3516-5.9062c2.6289-0.17969 5.1406-1.7148 5.3164-4.4922 7.0312 4.1484 13.066 9.3477 17.836 13.859-2.2695-0.45703-4.4062-0.84375-6.4141-1.1523z"/>
 <path d="m78.125 28.488c-7.4922-5.3828-17.43-8.3594-27.996-8.3984-0.085937-0.015625-0.17578-0.015625-0.26562 0-10.59 0.015625-20.555 2.9961-28.059 8.3984-0.44141 0.31641-0.86719 0.64062-1.2891 0.97656-6.7969 5.3398-10.516 12.234-10.516 19.559 0 7.7734 4.1914 15.07 11.801 20.535 7.5312 5.4102 17.531 8.3984 28.16 8.3984 10.629 0 20.629-2.9805 28.16-8.3984 7.6172-5.4688 11.801-12.758 11.801-20.535 0-7.7734-4.1953-15.07-11.797-20.535zm-27.285 47.891c0.3125-2.5312 0.50391-5.2891-0.10547-7.3828v-0.003906c-0.054687-0.20313-0.1875-0.375-0.37109-0.48047-0.18359-0.10156-0.39844-0.12891-0.60156-0.070313s-0.375 0.19922-0.47266 0.38281c-0.097656 0.1875-0.11719 0.40625-0.054687 0.60547 0.54688 1.8828 0.33984 4.5312 0.03125 6.9531-16.211-0.20703-29.984-7.5977-35.328-17.883l0.35938-0.84375c0.10938-0.25-0.003906-0.53906-0.25391-0.64453-0.25-0.10938-0.53516 0.003906-0.64453 0.25391l-0.027344 0.0625c-0.066406-0.14844-0.13281-0.29688-0.19531-0.44922l1.082-0.53906c0.21484-0.13281 0.29688-0.40625 0.18359-0.63281-0.11328-0.23047-0.38281-0.33203-0.61719-0.23828l-1.0078 0.50391c-0.070312-0.19531-0.13672-0.38281-0.19531-0.57031v-0.003906c0.015625 0 0.035156-0.007813 0.050781-0.015626l1.9531-0.78125c0.25-0.097656 0.37109-0.38281 0.26953-0.63281-0.10156-0.25391-0.38672-0.37109-0.63672-0.27344l-1.7969 0.71875-0.066407-1.2539 1.5391-0.28125c0.12891-0.023437 0.24219-0.09375 0.31641-0.20312 0.070312-0.10547 0.10156-0.23438 0.074219-0.36328-0.046875-0.26562-0.30078-0.4375-0.56641-0.39062l-1.4023 0.25781c0-0.28125 0-0.5625 0.015625-0.84375h2.8398c0.26953 0 0.48828-0.21875 0.48828-0.48828 0-0.27344-0.21875-0.48828-0.48828-0.48828h-2.7812c0.007812-0.10547 0.023437-0.21094 0.03125-0.31641h0.003906c1.5039 0.19141 3.0195 0.29297 4.5391 0.30859 1.7578 0 3.0938-0.19531 4.0547-0.57422h-0.003906c0.40234-0.16016 0.59375-0.61719 0.43359-1.0195-0.16406-0.39844-0.61719-0.59375-1.0195-0.42969-1.4023 0.5625-4.0312 0.61719-7.8125 0.16406 0.027344-0.16406 0.058594-0.33203 0.089844-0.5l3.0742-0.16406c0.26953-0.015625 0.47656-0.24609 0.46094-0.51562-0.011719-0.26953-0.24219-0.47656-0.51172-0.46094l-2.8203 0.14844c0.058593-0.26172 0.125-0.51562 0.19531-0.76562l4.2344-0.15625-0.003906-0.003906c0.27344-0.007813 0.48047-0.23438 0.47266-0.50781-0.007812-0.26953-0.23438-0.47656-0.50391-0.46875l-3.9062 0.14453c0.09375-0.30859 0.19531-0.61719 0.30469-0.92188h4.3906c0.26953 0 0.48438-0.21484 0.48438-0.48828 0-0.26953-0.21484-0.48828-0.48438-0.48828h-4.0312c0.15625-0.38281 0.32031-0.75781 0.49609-1.1328l4.1016 0.16406h0.019531c0.26953 0.003906 0.49219-0.20703 0.49609-0.48047 0.003906-0.26953-0.20703-0.49219-0.48047-0.49609l-3.668-0.14844c0.11719-0.22266 0.23438-0.44531 0.35156-0.66406l4.4805-0.16016h0.003906c0.26953-0.007812 0.48047-0.23438 0.47266-0.50391-0.011719-0.26953-0.23828-0.48047-0.50781-0.47266l-3.8594 0.13672c0.1875-0.30469 0.38281-0.60938 0.58594-0.91406h4.0742-0.003907c0.27344 0 0.48828-0.21484 0.48828-0.48828 0-0.26953-0.21484-0.48828-0.48828-0.48828h-3.3945c0.23438-0.32422 0.48438-0.64844 0.73438-0.97656h3.8242c0.27344 0 0.49219-0.21484 0.49219-0.48828 0-0.26953-0.21875-0.48828-0.49219-0.48828h-3.0195c0.13281-0.15234 0.26562-0.30469 0.39062-0.45703l4-0.125h-0.003907c0.27344-0.007812 0.48438-0.23047 0.47656-0.50391-0.011719-0.26953-0.23438-0.48047-0.50781-0.47266l-3.0352 0.09375c0.24609-0.25391 0.49219-0.50391 0.74609-0.75l3.6836-0.11719c0.27344-0.007812 0.48438-0.23438 0.47266-0.50391-0.007812-0.26953-0.23047-0.48047-0.50391-0.47266l-2.5781 0.085937c0.29297-0.26172 0.59375-0.51953 0.89844-0.78125l5.0508-0.46094c0.26953-0.023438 0.46875-0.26172 0.44531-0.53125-0.023438-0.26953-0.26172-0.46875-0.53516-0.44531l-3.625 0.32812c0.4375-0.34375 0.88672-0.68359 1.3438-1.0234l4.8828-0.28125v0.003906c0.27344-0.015625 0.47656-0.24609 0.46094-0.51562s-0.24609-0.47656-0.51562-0.46094l-3.3203 0.19531c0.29688-0.19531 0.60156-0.40234 0.91016-0.60156l4.6016-0.17187c0.26953-0.011719 0.47656-0.23828 0.46875-0.50781-0.011719-0.26953-0.23828-0.48047-0.50781-0.46875l-2.9062 0.10938c0.29688-0.17969 0.60156-0.35938 0.90625-0.53906l4.3711-0.14844v-0.003906c0.26953-0.003906 0.48438-0.22656 0.48047-0.49609s-0.22656-0.48438-0.49609-0.48047h-0.015625l-2.4688 0.085938c0.23438-0.125 0.46484-0.25 0.70312-0.375l0.79688-0.39062 5.1172-0.48047v-0.003906c0.26953-0.023438 0.46875-0.26562 0.44141-0.53516-0.023438-0.26953-0.26172-0.46484-0.53516-0.44141l-2.0078 0.19531c3.9688-1.0156 8.043-1.5625 12.137-1.6211-0.28906 1.7109-0.39062 3.2852 0.27734 4.3906 0.23438 0.35156 0.70312 0.45312 1.0625 0.23438 0.35938-0.22266 0.47656-0.6875 0.26562-1.0547-0.4375-0.71875-0.28516-2.1094-0.019531-3.5703 20.445 0.25 37.043 11.938 37.695 26.453-1.0391-0.21094-1.9883-0.375-2.8477-0.49219-0.42578-4.8828-2.9141-9.4609-7.4531-13.691v-0.003906c-0.19531-0.18359-0.50391-0.17188-0.6875 0.027344-0.18359 0.19531-0.17578 0.50391 0.023437 0.69141 4.3477 4.0547 6.7109 8.2969 7.1484 12.855-3.0781-0.33594-4.8906-0.011719-5.9219 0.97656v-0.003906c-0.30859 0.30859-0.3125 0.80859-0.003907 1.1211 0.30469 0.30859 0.80859 0.3125 1.1172 0.003906 0.79688-0.76953 2.8789-0.75781 4.9141-0.52344-0.011718 1.4727-0.19531 2.9375-0.55469 4.3633-0.0625 0.26172 0.097656 0.52734 0.35938 0.58984 0.26172 0.066407 0.52734-0.09375 0.59375-0.35937 0.35547-1.457 0.53906-2.957 0.54688-4.4609 1.0781 0.15625 2.082 0.35547 2.7969 0.5-0.50781 14.559-17.055 26.328-37.504 26.66z"/>
 <path d="m53.711 30.828 1.7578 0.97656c0.070312 0.042968 0.15234 0.0625 0.23438 0.0625h0.039063c0.039062 0 0.074218-0.003907 0.10937-0.015626 0.12891-0.027343 0.23828-0.10547 0.30859-0.21484 0.066406-0.10938 0.089844-0.24219 0.058594-0.37109l-0.085938-0.38281 0.003907 0.003907c-0.058594-0.26172-0.32031-0.42969-0.58594-0.36719-0.078125 0.015625-0.14844 0.050781-0.20703 0.10547l-1.1562-0.64453-0.003906-0.003907c-0.23438-0.12891-0.53125-0.042968-0.66406 0.19141-0.12891 0.23438-0.042969 0.53125 0.19141 0.66406z"/>
 <path d="m68.945 42.531-0.17969 0.21484v-0.003906c-0.085937 0.097656-0.12891 0.23047-0.11719 0.35937 0.011718 0.13281 0.074218 0.25391 0.17578 0.33594 0.097656 0.085938 0.23047 0.125 0.35938 0.11328 0.13281-0.015625 0.25391-0.082031 0.33203-0.18359l0.97656-1.1719c0.16797-0.20703 0.13672-0.50781-0.066407-0.67969-0.20703-0.16797-0.50781-0.14453-0.68359 0.054687l-0.16016 0.19531-0.64844-0.78125h0.003906c-0.17578-0.19922-0.47656-0.22266-0.67969-0.054687-0.20312 0.17187-0.23437 0.47266-0.070312 0.67969z"/>
 <path d="m33.18 63.504c-0.011719-0.027344-0.027344-0.058594-0.042969-0.082031v-0.003906c-0.015625-0.023438-0.039063-0.050781-0.058594-0.074219-0.19531-0.17969-0.5-0.17969-0.69531 0-0.019531 0.023438-0.042968 0.050781-0.058593 0.078125v-0.003906c-0.019531 0.027343-0.03125 0.054687-0.042969 0.085937-0.015625 0.03125-0.023438 0.058594-0.03125 0.089844h0.003906c-0.003906 0.03125-0.003906 0.0625 0 0.089844-0.003906-0.050782-0.011718-0.10156-0.023437-0.14844-0.089844-0.25391-0.36328-0.39062-0.61719-0.30859l-2.3438 0.78125c-0.23047 0.074219-0.36719 0.30469-0.32812 0.54297 0.039063 0.23438 0.24219 0.40625 0.48047 0.41016 0.050781 0 0.10547-0.011719 0.15625-0.027344l0.15234-0.050782 0.71094 0.71094h-0.003906c0.19141 0.19141 0.5 0.19141 0.69141 0 0.09375-0.089844 0.14453-0.21484 0.14453-0.34375s-0.050782-0.25391-0.14453-0.34375l-0.36719-0.36719 1.1484-0.39062c0.19531-0.066407 0.32812-0.24609 0.33203-0.45313v0.085938c0.007812 0.03125 0.015624 0.058594 0.027343 0.089844 0.015625 0.03125 0.027344 0.058594 0.046875 0.085937 0.015625 0.023438 0.039063 0.050781 0.058594 0.074219 0.09375 0.089844 0.21875 0.14062 0.34766 0.14062 0.03125 0.003906 0.0625 0.003906 0.09375 0 0.03125-0.007813 0.0625-0.015625 0.089844-0.027344 0.03125-0.011719 0.0625-0.027343 0.085938-0.042969 0.027343-0.019531 0.054687-0.039062 0.074218-0.0625 0.09375-0.089843 0.14453-0.21484 0.14453-0.34375 0-0.03125-0.003907-0.0625-0.011719-0.09375 0-0.035156-0.007813-0.066406-0.019531-0.097656z"/>
 <path d="m65.75 66.43c-0.21094-0.16406-0.51172-0.13281-0.67969 0.070312-0.17187 0.20312-0.14844 0.50391 0.054688 0.67969l1.1719 0.97656c0.20703 0.17188 0.51562 0.14453 0.6875-0.0625s0.14453-0.51562-0.0625-0.6875z"/>
 <path d="m10.43 36.625c0.097656 0.078125 0.22656 0.11719 0.35547 0.10156 0.12891-0.011718 0.24609-0.078124 0.32812-0.17969l0.78125-0.97656c0.089844-0.10156 0.13281-0.23047 0.12109-0.36328-0.011719-0.13672-0.078125-0.25781-0.18359-0.33984-0.10156-0.085938-0.23828-0.12109-0.37109-0.10156-0.12891 0.015625-0.25 0.085937-0.32813 0.19531l-0.78125 0.97656c-0.16797 0.21094-0.13281 0.51562 0.078126 0.6875z"/>
 <path d="m13.965 66.43c-0.039063-0.03125-0.085938-0.058594-0.13281-0.078126h0.0625c0.26953-0.011718 0.47656-0.23828 0.46484-0.50781l-0.046875-1.0469c-0.011719-0.26953-0.24219-0.47656-0.51172-0.46484s-0.47656 0.23828-0.46484 0.51172l0.046874 1.0469c0.011719 0.1875 0.125 0.35547 0.30078 0.42969-0.21484-0.023437-0.41797 0.10156-0.5 0.30469-0.078125 0.19922-0.015625 0.42969 0.15625 0.5625l1.1719 0.97656c0.20703 0.17188 0.51562 0.14453 0.6875-0.0625 0.17188-0.20703 0.14453-0.51562-0.0625-0.6875z"/>
 <path d="m43.438 80.336h-1.1719c-0.26953 0-0.48828 0.21484-0.48828 0.48437 0 0.27344 0.21875 0.49219 0.48828 0.49219h1.1719c0.26953 0 0.48828-0.21875 0.48828-0.49219 0-0.26953-0.21875-0.48437-0.48828-0.48437z"/>
 <path d="m88.742 37.047 1.9531 1.1719c0.074219 0.046875 0.16016 0.074219 0.25 0.070312 0.21875 0 0.41016-0.14453 0.46875-0.35547 0.058594-0.21094-0.03125-0.4375-0.21875-0.55078l-1.9531-1.1719v0.003906c-0.10938-0.078125-0.25-0.10547-0.37891-0.074219-0.13281 0.027344-0.24609 0.10938-0.3125 0.22656-0.070312 0.11328-0.089843 0.25-0.054687 0.38281 0.039062 0.12891 0.125 0.23438 0.24609 0.30078z"/>
 <path d="m42.914 11.156c0.23047-0.14062 0.30469-0.44141 0.16016-0.67188-0.14062-0.23047-0.44141-0.30078-0.67188-0.16016-1.3203 0.8125-2.1758 1.7578-2.5391 2.7812v0.003906c-0.089843 0.25391 0.042969 0.53125 0.29688 0.62109 0.050782 0.019531 0.10547 0.027343 0.16016 0.027343 0.21094 0 0.39453-0.12891 0.46094-0.32812 0.28906-0.8125 1.0156-1.5781 2.1328-2.2734z"/>
 <path d="m98.438 50.73c-0.91797-9.4219-6.6016-18.633-15.594-25.273-6.0977-4.4648-13.113-7.5156-20.539-8.9375 0.27734-0.62109 0.45703-1.2773 0.52734-1.9531 0.082031-0.75781 0-1.5234-0.23828-2.2461-0.51172-2.1953-1.8242-4.0547-3.8711-5.4531-2.3203-1.5898-5.4297-2.4609-8.75-2.4609-3.3242-0.003906-6.4414 0.88281-8.7617 2.4688-2.6953 1.8438-4.1172 4.4766-4.1172 7.6172 0.003906 0.92969 0.23828 1.8398 0.67969 2.6562-7.8984 1.7734-15.219 4.9414-21.309 9.3047-9.2734 6.6406-14.59 15.281-14.98 24.328-0.035156 0.84766-0.027344 1.6953 0.023437 2.5391v0.15234-0.003906c0.09375 2.2148 0.40625 4.4141 0.93359 6.5703 2.5391 12.461 10.004 22.535 21.594 28.906 7.9453 4.3633 17.227 6.6602 26.898 6.6602h0.88281c10.016-0.14453 19.422-2.7344 27.195-7.5039 6.1992-3.8203 11.027-8.7812 14.348-14.781 2.8906-5.2109 4.5625-11.082 4.9922-17.5 0.22266-1.6875 0.25-3.3945 0.085938-5.0898zm-59.781-36.238v-0.24219c0.070312-1.1719 0.67969-2.3438 1.7578-3.3789 2.1367-2.0391 5.7773-3.2031 9.5-3.0352 4.8203 0.21875 8.5938 1.5156 10.344 3.5547h-0.003906c0.21484 0.24609 0.40234 0.51953 0.55859 0.80859l-0.92969-0.67578c-0.10156-0.09375-0.23828-0.14453-0.37891-0.12891-0.14062 0.011719-0.26562 0.082031-0.34766 0.19531-0.082031 0.11328-0.11328 0.25391-0.085938 0.39062 0.03125 0.13672 0.11719 0.25391 0.23828 0.32422l1.9102 1.3906c0.015625 0.17969 0.03125 0.35938 0.035156 0.54688l-1.1211-1.1211h0.003907c-0.19531-0.18359-0.5-0.18359-0.6875 0.007812-0.1875 0.1875-0.1875 0.49219-0.003907 0.68359l1.6055 1.6055c-0.03125 0.10156-0.070312 0.20703-0.10938 0.30859l-0.96094-1.1992-0.003907-0.003906c-0.078124-0.10547-0.19922-0.17578-0.32812-0.19531-0.13281-0.019531-0.26953 0.019531-0.37109 0.10156-0.10547 0.085937-0.17188 0.20703-0.18359 0.33984-0.011719 0.13281 0.03125 0.26562 0.12109 0.36328l0.79688 0.99219-0.48828-0.070312-0.11719-0.15625-0.003906 0.003906c-0.097656-0.13281-0.25-0.20312-0.41016-0.19922-0.16406 0.007813-0.30859 0.09375-0.39453 0.23438-0.40625-0.046875-0.8125-0.09375-1.2188-0.13281-1.043-2.0352-3.9844-3.4141-7.4219-3.4141-3.7109 0-6.8359 1.6094-7.6328 3.9062-0.98828 0.15234-1.9727 0.32422-2.9453 0.51562v-0.003906c-0.46094-0.6875-0.71484-1.4922-0.72266-2.3164zm-10.891 68.75h-0.003906c-0.039063 0.23437-0.24219 0.40625-0.48047 0.40625-0.027344 0.003906-0.054688 0.003906-0.082031 0l-2.3438-0.39063h-0.023438l-0.035156-0.007812h-0.003906c-0.023438-0.007812-0.050781-0.015625-0.074219-0.03125l-0.03125-0.015625v0.003906c-0.03125-0.019531-0.058594-0.042969-0.089844-0.066406v-0.003906c-0.023437-0.023438-0.046875-0.050781-0.066406-0.082031l-0.007812-0.011719-0.58594-0.97656c-0.14062-0.23047-0.0625-0.53125 0.16797-0.67188 0.23047-0.13672 0.53125-0.0625 0.66797 0.16797l0.46875 0.78125 2.1172 0.35156c0.25781 0.042969 0.43359 0.28125 0.40234 0.54297zm49.609-0.054688c-8.4297 5.1562-17.305 7.6172-27.621 7.6172-1.5 0-3.0312-0.050782-4.5938-0.15625h-0.003906c-0.12891-0.007813-0.25-0.066407-0.33203-0.16406-0.085938-0.097656-0.12891-0.22656-0.12109-0.35547 0.015625-0.26953 0.25-0.47266 0.51953-0.45703 12.109 0.80469 22.164-1.5273 31.641-7.3281v0.003906c0.23047-0.14062 0.53125-0.066406 0.67188 0.16016 0.14062 0.23047 0.066406 0.53125-0.16016 0.67188zm11.793-13.086 0.69531-4.1836-0.003906 0.003906c0.027344-0.13281 0-0.26562-0.074219-0.375-0.078125-0.10938-0.19141-0.17969-0.32422-0.20312-0.12891-0.023438-0.26172 0.011719-0.36719 0.089844-0.10938 0.078125-0.17578 0.19531-0.19531 0.32422l-0.91406 5.4766c-0.23438 0.21875-0.47656 0.43359-0.71875 0.64844l0.64844-3.4219c0.050782-0.26563-0.125-0.51953-0.39062-0.57031-0.26563-0.050781-0.51953 0.125-0.57031 0.39062l-0.86719 4.6016c-0.36719 0.29688-0.74609 0.59375-1.1328 0.88281l0.8125-3.5273v-0.003906c0.058594-0.26172-0.10547-0.51953-0.36328-0.58203-0.26172-0.058594-0.52344 0.10156-0.58594 0.35938l-1.0664 4.625c-0.39062 0.27734-0.79688 0.55078-1.207 0.81641l1.0703-3.0234-0.003906-0.003907c0.050781-0.125 0.050781-0.26172-0.003906-0.38281-0.054688-0.125-0.15625-0.21875-0.28516-0.26172-0.125-0.046875-0.26172-0.035156-0.38281 0.023438-0.11719 0.0625-0.20703 0.16797-0.24609 0.29687l-1.4766 4.1797c-0.41016 0.25-0.82812 0.49219-1.25 0.73047l0.73438-2.2617h-0.003907c0.082032-0.25781-0.058593-0.53125-0.3125-0.61719-0.25781-0.082031-0.53516 0.058594-0.61719 0.31641l-1.0547 3.2305c-0.32031 0.17187-0.64453 0.33594-0.97656 0.5l0.78906-1.8438v0.007812c0.10937-0.25-0.003907-0.53906-0.25-0.64453-0.25-0.10938-0.53516 0.003906-0.64453 0.25391l-1.2344 2.875c-0.50391 0.23438-1.0156 0.46094-1.5312 0.67969l1.3086-2.1328c0.14062-0.23047 0.066406-0.53125-0.16406-0.67188-0.23047-0.14062-0.53125-0.066406-0.67187 0.16406l-1.9805 3.2695c-0.41406 0.16016-0.82812 0.32031-1.25 0.47656l0.97656-2.1172h0.003907c0.10156-0.24609-0.007813-0.52734-0.24609-0.63672-0.24219-0.10938-0.52344-0.011719-0.64062 0.22656l-1.3672 2.9844c-0.29297 0.10156-0.58594 0.19531-0.88281 0.29688l0.41797-0.92578v-0.003906c0.058593-0.11719 0.066406-0.25391 0.023437-0.38281-0.042969-0.125-0.13672-0.22656-0.25781-0.28125-0.12109-0.054688-0.26172-0.058594-0.38672-0.007813-0.12109 0.050781-0.21875 0.14844-0.26953 0.27344l-0.78125 1.7188c-0.36719 0.11328-0.73828 0.21875-1.1094 0.32422l0.23437-0.44922c0.125-0.24219 0.03125-0.53516-0.20703-0.66016-0.24219-0.125-0.53516-0.03125-0.66016 0.20703l-0.64844 1.2422c-0.43359 0.11328-0.875 0.21875-1.3125 0.32031l0.054687-0.066407-0.003906 0.003907c0.16406-0.21484 0.12891-0.52344-0.085938-0.6875-0.21484-0.16406-0.51953-0.12891-0.68359 0.085937l-0.78125 1c-4.4531 0.92969-8.9883 1.4023-13.539 1.3984-15.664 0-30.273-5.4961-39.102-14.707-4.1406-4.3203-6.6953-9.1797-7.5273-14.258-0.16016-1.4805-0.25781-2.9883-0.28125-4.5312l-0.003907 0.003906c0.003907-0.007813 0.003907-0.019531 0-0.03125v-0.11719c0.76563-17.609 21.82-32.734 46.961-33.703 0.66406-0.023437 1.3203-0.039062 1.9766-0.039062 1.5781 0 3.1406 0.078125 4.6875 0.21875 0.085938 0.019531 0.17578 0.03125 0.26563 0.023438 20.008 1.9297 37.121 15.336 39.742 31.867-0.050781 0.011719-0.097656 0.03125-0.14062 0.054687-0.23047 0.14453-0.29688 0.44531-0.15625 0.67578l0.49609 0.78125c0 0.046875 0.007812 0.089844 0.015625 0.13672v0.011719l-0.09375-0.125h0.003906c-0.070313-0.12109-0.1875-0.20703-0.32422-0.23438-0.13672-0.03125-0.28125 0-0.39062 0.082032-0.11328 0.082031-0.1875 0.21094-0.19922 0.35156-0.011718 0.13672 0.035157 0.27344 0.13281 0.375l0.87109 1.1953c-0.015625 0.58594-0.039063 1.1484-0.085938 1.7109l-0.53906-1.0781v0.003906c-0.12109-0.24219-0.41406-0.33984-0.65625-0.21875-0.24219 0.12109-0.33984 0.41406-0.21875 0.65625l1.2188 2.4336c-0.046875 0.35156-0.10156 0.70312-0.16016 1.0469l-0.35156-1.8281c-0.050781-0.26562-0.30469-0.44141-0.56641-0.39062-0.26562 0.046875-0.44141 0.29688-0.39453 0.5625l0.75 4.1641c-0.21875 0.66406-0.47656 1.3281-0.75781 1.9805v-4.0898c0-0.26953-0.21875-0.48828-0.48828-0.48828s-0.48828 0.21875-0.48828 0.48828v6.0664c-0.19531 0.33594-0.37891 0.67188-0.58594 1.0078v-4.9336c0-0.26953-0.21875-0.48828-0.48828-0.48828s-0.48828 0.21875-0.48828 0.48828v6.4219c-0.45313 0.64453-0.9375 1.2812-1.457 1.9062l1.0625-5.7109v0.003906c0.050782-0.26562-0.125-0.51953-0.39062-0.57031-0.26562-0.050782-0.51953 0.125-0.57031 0.39062l-1.3672 7.3125c-0.21484 0.24609-0.45703 0.49609-0.69922 0.73828z"/>
</svg>
